<svg width="582" height="267" viewBox="0 0 582 267" fill="none" xmlns="http://www.w3.org/2000/svg">
<path d="M24.2493 155.736H299.783C309.308 155.736 317.031 148.013 317.031 138.487V70.2493C317.031 60.7226 309.308 53 299.783 53H24.2493C14.7227 53 7 60.7226 7 70.2493V138.487C7 148.013 14.7227 155.736 24.2493 155.736Z" fill="#3B51A3"/>
<path d="M118.026 201.181L116.356 209.596H112.305L114.059 201.265C114.56 198.87 115.019 197.186 115.437 196.211C115.855 195.223 116.377 194.422 117.003 193.81C117.644 193.197 118.5 192.675 119.572 192.244L113.537 183.975H118.277L127.694 196.942C128.739 195.968 129.567 194.791 130.179 193.413C130.806 192.021 131.216 190.427 131.411 188.631L131.892 183.975H135.859L135.379 188.548C135.226 190.079 134.947 191.422 134.544 192.578C134.265 193.371 133.931 194.13 133.541 194.854C133.151 195.564 132.65 196.302 132.038 197.067C131.439 197.833 130.66 198.689 129.699 199.636L137.237 209.596H132.351L121.326 194.624C120.212 195.167 119.418 196.107 118.945 197.443C118.806 197.791 118.66 198.279 118.507 198.905C118.367 199.531 118.207 200.29 118.026 201.181ZM144.88 201.181L143.209 209.596H139.158L140.912 201.265C141.413 198.87 141.873 197.186 142.29 196.211C142.708 195.223 143.23 194.422 143.857 193.81C144.497 193.197 145.353 192.675 146.425 192.244L140.39 183.975H145.13L154.548 196.942C155.592 195.968 156.42 194.791 157.033 193.413C157.659 192.021 158.07 190.427 158.265 188.631L158.745 183.975H162.712L162.232 188.548C162.079 190.079 161.801 191.422 161.397 192.578C161.118 193.371 160.784 194.13 160.395 194.854C160.005 195.564 159.504 196.302 158.891 197.067C158.293 197.833 157.513 198.689 156.552 199.636L164.091 209.596H159.204L148.179 194.624C147.065 195.167 146.272 196.107 145.799 197.443C145.659 197.791 145.513 198.279 145.36 198.905C145.221 199.531 145.061 200.29 144.88 201.181ZM183.761 201.181L182.09 209.596H178.039L179.793 201.265C180.294 198.87 180.754 197.186 181.171 196.211C181.589 195.223 182.111 194.422 182.738 193.81C183.378 193.197 184.234 192.675 185.306 192.244L179.271 183.975H184.011L193.429 196.942C194.473 195.968 195.301 194.791 195.914 193.413C196.54 192.021 196.951 190.427 197.146 188.631L197.626 183.975H201.593L201.113 188.548C200.96 190.079 200.682 191.422 200.278 192.578C199.999 193.371 199.665 194.13 199.276 194.854C198.886 195.564 198.385 196.302 197.772 197.067C197.174 197.833 196.394 198.689 195.433 199.636L202.972 209.596H198.085L187.06 194.624C185.946 195.167 185.153 196.107 184.68 197.443C184.54 197.791 184.394 198.279 184.241 198.905C184.102 199.531 183.942 200.29 183.761 201.181Z" fill="#3B51A3"/>
<path d="M32.5431 234.527H28.7404C28.5155 233.434 28.1219 232.473 27.5597 231.645C27.0077 230.817 26.333 230.122 25.5357 229.559C24.7486 228.987 23.8745 228.558 22.9136 228.271C21.9528 227.985 20.951 227.842 19.9083 227.842C18.0069 227.842 16.2845 228.322 14.7409 229.283C13.2076 230.244 11.986 231.66 11.0762 233.531C10.1766 235.401 9.7269 237.696 9.7269 240.415C9.7269 243.135 10.1766 245.43 11.0762 247.3C11.986 249.171 13.2076 250.587 14.7409 251.548C16.2845 252.508 18.0069 252.989 19.9083 252.989C20.951 252.989 21.9528 252.846 22.9136 252.56C23.8745 252.273 24.7486 251.849 25.5357 251.287C26.333 250.714 27.0077 250.014 27.5597 249.186C28.1219 248.348 28.5155 247.387 28.7404 246.304H32.5431C32.2568 247.908 31.7355 249.345 30.9791 250.612C30.2226 251.88 29.2822 252.958 28.1577 253.848C27.0332 254.727 25.7708 255.396 24.3703 255.856C22.9801 256.316 21.4927 256.546 19.9083 256.546C17.23 256.546 14.8482 255.892 12.7629 254.584C10.6775 253.275 9.0369 251.415 7.84089 249.002C6.64488 246.59 6.04688 243.727 6.04688 240.415C6.04688 237.103 6.64488 234.241 7.84089 231.829C9.0369 229.416 10.6775 227.556 12.7629 226.247C14.8482 224.939 17.23 224.285 19.9083 224.285C21.4927 224.285 22.9801 224.515 24.3703 224.975C25.7708 225.435 27.0332 226.109 28.1577 226.999C29.2822 227.878 30.2226 228.951 30.9791 230.219C31.7355 231.476 32.2568 232.912 32.5431 234.527ZM45.128 256.669C43.6356 256.669 42.2811 256.388 41.0647 255.826C39.8482 255.253 38.8822 254.43 38.1666 253.357C37.4511 252.273 37.0933 250.965 37.0933 249.432C37.0933 248.082 37.3591 246.988 37.8906 246.15C38.4222 245.302 39.1326 244.637 40.022 244.157C40.9113 243.676 41.8927 243.319 42.966 243.083C44.0496 242.838 45.1382 242.644 46.232 242.501C47.6632 242.317 48.8234 242.179 49.7127 242.087C50.6123 241.985 51.2665 241.816 51.6754 241.581C52.0945 241.346 52.3041 240.937 52.3041 240.354V240.231C52.3041 238.719 51.8901 237.543 51.0621 236.705C50.2443 235.867 49.0023 235.447 47.336 235.447C45.6085 235.447 44.254 235.826 43.2727 236.582C42.2913 237.339 41.6013 238.146 41.2027 239.005L37.768 237.778C38.3813 236.347 39.1991 235.233 40.2213 234.435C41.2538 233.628 42.3782 233.066 43.5947 232.749C44.8214 232.422 46.0276 232.258 47.2134 232.258C47.9698 232.258 48.8387 232.35 49.8201 232.534C50.8116 232.708 51.7674 233.071 52.6874 233.623C53.6177 234.175 54.3894 235.008 55.0028 236.122C55.6161 237.236 55.9228 238.729 55.9228 240.599V256.117H52.3041V252.928H52.1201C51.8748 253.439 51.4659 253.986 50.8934 254.568C50.321 255.151 49.5594 255.647 48.6087 256.056C47.658 256.465 46.4978 256.669 45.128 256.669ZM45.68 253.418C47.1112 253.418 48.3174 253.137 49.2987 252.575C50.2903 252.013 51.0365 251.287 51.5374 250.398C52.0485 249.508 52.3041 248.573 52.3041 247.592V244.279C52.1508 244.464 51.8134 244.632 51.2921 244.786C50.781 244.929 50.1881 245.056 49.5134 245.169C48.8489 245.271 48.1998 245.363 47.566 245.445C46.9425 245.516 46.4365 245.578 46.048 245.629C45.1076 245.752 44.2285 245.951 43.4107 246.227C42.6031 246.493 41.9489 246.896 41.448 247.438C40.9573 247.97 40.712 248.696 40.712 249.616C40.712 250.873 41.1771 251.824 42.1073 252.468C43.0478 253.101 44.2387 253.418 45.68 253.418ZM62.5277 264.949V232.565H66.0237V236.306H66.4531C66.7188 235.897 67.0868 235.376 67.5571 234.742C68.0375 234.098 68.7224 233.526 69.6117 233.025C70.5113 232.514 71.7278 232.258 73.2611 232.258C75.2442 232.258 76.9923 232.754 78.5052 233.745C80.0181 234.737 81.1987 236.143 82.0472 237.962C82.8957 239.782 83.3199 241.928 83.3199 244.402C83.3199 246.896 82.8957 249.058 82.0472 250.888C81.1987 252.708 80.0232 254.118 78.5205 255.12C77.0178 256.112 75.2851 256.608 73.3225 256.608C71.8095 256.608 70.5982 256.357 69.6884 255.856C68.7786 255.345 68.0784 254.768 67.5877 254.124C67.0971 253.469 66.7188 252.928 66.4531 252.498H66.1464V264.949H62.5277ZM66.085 244.341C66.085 246.12 66.3457 247.689 66.8671 249.048C67.3884 250.398 68.15 251.456 69.1517 252.222C70.1535 252.979 71.3802 253.357 72.8318 253.357C74.3447 253.357 75.6071 252.958 76.6191 252.161C77.6414 251.353 78.4081 250.27 78.9192 248.91C79.4405 247.54 79.7012 246.017 79.7012 244.341C79.7012 242.685 79.4456 241.192 78.9345 239.863C78.4336 238.524 77.672 237.466 76.6498 236.689C75.6378 235.902 74.3651 235.509 72.8318 235.509C71.3598 235.509 70.1229 235.882 69.1211 236.628C68.1193 237.364 67.3628 238.397 66.8517 239.725C66.3406 241.044 66.085 242.583 66.085 244.341ZM88.8399 256.117V232.565H92.4586V256.117H88.8399ZM90.6799 228.639C89.9746 228.639 89.3664 228.399 88.8553 227.919C88.3544 227.438 88.1039 226.861 88.1039 226.186C88.1039 225.511 88.3544 224.934 88.8553 224.453C89.3664 223.973 89.9746 223.733 90.6799 223.733C91.3853 223.733 91.9884 223.973 92.4893 224.453C93.0004 224.934 93.256 225.511 93.256 226.186C93.256 226.861 93.0004 227.438 92.4893 227.919C91.9884 228.399 91.3853 228.639 90.6799 228.639ZM109.329 232.565V235.631H97.1238V232.565H109.329ZM100.681 226.922H104.3V249.37C104.3 250.392 104.448 251.159 104.744 251.67C105.051 252.171 105.44 252.508 105.91 252.682C106.39 252.846 106.896 252.928 107.428 252.928C107.827 252.928 108.154 252.907 108.409 252.866C108.665 252.815 108.869 252.774 109.023 252.744L109.759 255.994C109.513 256.086 109.171 256.178 108.731 256.27C108.292 256.373 107.735 256.424 107.06 256.424C106.038 256.424 105.036 256.204 104.054 255.764C103.083 255.325 102.276 254.655 101.632 253.756C100.998 252.856 100.681 251.721 100.681 250.352V226.922ZM121.703 256.669C120.211 256.669 118.856 256.388 117.64 255.826C116.423 255.253 115.457 254.43 114.742 253.357C114.026 252.273 113.669 250.965 113.669 249.432C113.669 248.082 113.934 246.988 114.466 246.15C114.997 245.302 115.708 244.637 116.597 244.157C117.487 243.676 118.468 243.319 119.541 243.083C120.625 242.838 121.714 242.644 122.807 242.501C124.238 242.317 125.399 242.179 126.288 242.087C127.188 241.985 127.842 241.816 128.251 241.581C128.67 241.346 128.879 240.937 128.879 240.354V240.231C128.879 238.719 128.465 237.543 127.637 236.705C126.82 235.867 125.578 235.447 123.911 235.447C122.184 235.447 120.829 235.826 119.848 236.582C118.867 237.339 118.177 238.146 117.778 239.005L114.343 237.778C114.957 236.347 115.774 235.233 116.797 234.435C117.829 233.628 118.953 233.066 120.17 232.749C121.397 232.422 122.603 232.258 123.789 232.258C124.545 232.258 125.414 232.35 126.395 232.534C127.387 232.708 128.343 233.071 129.263 233.623C130.193 234.175 130.965 235.008 131.578 236.122C132.191 237.236 132.498 238.729 132.498 240.599V256.117H128.879V252.928H128.695C128.45 253.439 128.041 253.986 127.469 254.568C126.896 255.151 126.135 255.647 125.184 256.056C124.233 256.465 123.073 256.669 121.703 256.669ZM122.255 253.418C123.686 253.418 124.893 253.137 125.874 252.575C126.866 252.013 127.612 251.287 128.113 250.398C128.624 249.508 128.879 248.573 128.879 247.592V244.279C128.726 244.464 128.389 244.632 127.867 244.786C127.356 244.929 126.763 245.056 126.089 245.169C125.424 245.271 124.775 245.363 124.141 245.445C123.518 245.516 123.012 245.578 122.623 245.629C121.683 245.752 120.804 245.951 119.986 246.227C119.178 246.493 118.524 246.896 118.023 247.438C117.533 247.97 117.287 248.696 117.287 249.616C117.287 250.873 117.752 251.824 118.683 252.468C119.623 253.101 120.814 253.418 122.255 253.418ZM142.722 224.714V256.117H139.103V224.714H142.722ZM171.062 256.608C168.936 256.608 167.07 256.102 165.465 255.09C163.87 254.078 162.623 252.662 161.724 250.842C160.834 249.023 160.39 246.896 160.39 244.464C160.39 242.01 160.834 239.869 161.724 238.039C162.623 236.209 163.87 234.788 165.465 233.776C167.07 232.764 168.936 232.258 171.062 232.258C173.188 232.258 175.048 232.764 176.643 233.776C178.248 234.788 179.495 236.209 180.384 238.039C181.284 239.869 181.734 242.01 181.734 244.464C181.734 246.896 181.284 249.023 180.384 250.842C179.495 252.662 178.248 254.078 176.643 255.09C175.048 256.102 173.188 256.608 171.062 256.608ZM171.062 253.357C172.677 253.357 174.006 252.943 175.048 252.115C176.091 251.287 176.863 250.198 177.364 248.849C177.865 247.5 178.115 246.038 178.115 244.464C178.115 242.889 177.865 241.422 177.364 240.063C176.863 238.703 176.091 237.604 175.048 236.766C174.006 235.928 172.677 235.509 171.062 235.509C169.447 235.509 168.118 235.928 167.075 236.766C166.032 237.604 165.261 238.703 164.76 240.063C164.259 241.422 164.008 242.889 164.008 244.464C164.008 246.038 164.259 247.5 164.76 248.849C165.261 250.198 166.032 251.287 167.075 252.115C168.118 252.943 169.447 253.357 171.062 253.357ZM197.746 232.565V235.631H185.05V232.565H197.746ZM188.852 256.117V229.314C188.852 227.965 189.169 226.84 189.803 225.941C190.437 225.041 191.26 224.366 192.272 223.917C193.284 223.467 194.352 223.242 195.476 223.242C196.366 223.242 197.092 223.314 197.654 223.457C198.216 223.6 198.635 223.733 198.911 223.855L197.869 226.983C197.685 226.922 197.429 226.845 197.102 226.753C196.785 226.661 196.366 226.615 195.844 226.615C194.648 226.615 193.785 226.917 193.253 227.52C192.732 228.123 192.471 229.007 192.471 230.173V256.117H188.852ZM215.452 256.117V224.714H219.255V238.698H235.999V224.714H239.802V256.117H235.999V242.071H219.255V256.117H215.452ZM261.767 246.488V232.565H265.386V256.117H261.767V252.13H261.522C260.97 253.326 260.111 254.343 258.946 255.182C257.78 256.01 256.308 256.424 254.53 256.424C253.058 256.424 251.749 256.102 250.604 255.458C249.459 254.803 248.56 253.822 247.905 252.514C247.251 251.195 246.924 249.534 246.924 247.53V232.565H250.543V247.285C250.543 249.002 251.023 250.372 251.984 251.394C252.955 252.416 254.192 252.928 255.695 252.928C256.594 252.928 257.509 252.698 258.44 252.238C259.38 251.778 260.167 251.072 260.801 250.122C261.445 249.171 261.767 247.96 261.767 246.488ZM272.014 256.117V232.565H275.51V236.245H275.816C276.307 234.987 277.099 234.011 278.193 233.316C279.287 232.611 280.6 232.258 282.134 232.258C283.687 232.258 284.981 232.611 286.013 233.316C287.056 234.011 287.868 234.987 288.451 236.245H288.696C289.299 235.028 290.204 234.062 291.41 233.347C292.617 232.621 294.063 232.258 295.75 232.258C297.856 232.258 299.578 232.917 300.917 234.236C302.256 235.545 302.926 237.584 302.926 240.354V256.117H299.307V240.354C299.307 238.616 298.832 237.374 297.881 236.628C296.93 235.882 295.811 235.509 294.523 235.509C292.867 235.509 291.584 236.01 290.674 237.011C289.765 238.003 289.31 239.26 289.31 240.783V256.117H285.63V239.986C285.63 238.647 285.195 237.569 284.326 236.751C283.457 235.923 282.338 235.509 280.968 235.509C280.028 235.509 279.149 235.759 278.331 236.26C277.523 236.761 276.869 237.456 276.368 238.345C275.878 239.225 275.632 240.242 275.632 241.397V256.117H272.014ZM316.473 256.669C314.98 256.669 313.626 256.388 312.41 255.826C311.193 255.253 310.227 254.43 309.512 253.357C308.796 252.273 308.438 250.965 308.438 249.432C308.438 248.082 308.704 246.988 309.236 246.15C309.767 245.302 310.478 244.637 311.367 244.157C312.256 243.676 313.238 243.319 314.311 243.083C315.394 242.838 316.483 242.644 317.577 242.501C319.008 242.317 320.168 242.179 321.058 242.087C321.957 241.985 322.611 241.816 323.02 241.581C323.439 241.346 323.649 240.937 323.649 240.354V240.231C323.649 238.719 323.235 237.543 322.407 236.705C321.589 235.867 320.347 235.447 318.681 235.447C316.953 235.447 315.599 235.826 314.618 236.582C313.636 237.339 312.946 238.146 312.548 239.005L309.113 237.778C309.726 236.347 310.544 235.233 311.566 234.435C312.599 233.628 313.723 233.066 314.94 232.749C316.166 232.422 317.372 232.258 318.558 232.258C319.315 232.258 320.184 232.35 321.165 232.534C322.157 232.708 323.112 233.071 324.032 233.623C324.963 234.175 325.734 235.008 326.348 236.122C326.961 237.236 327.268 238.729 327.268 240.599V256.117H323.649V252.928H323.465C323.22 253.439 322.811 253.986 322.238 254.568C321.666 255.151 320.904 255.647 319.954 256.056C319.003 256.465 317.843 256.669 316.473 256.669ZM317.025 253.418C318.456 253.418 319.662 253.137 320.644 252.575C321.635 252.013 322.381 251.287 322.882 250.398C323.393 249.508 323.649 248.573 323.649 247.592V244.279C323.496 244.464 323.158 244.632 322.637 244.786C322.126 244.929 321.533 245.056 320.858 245.169C320.194 245.271 319.545 245.363 318.911 245.445C318.287 245.516 317.781 245.578 317.393 245.629C316.452 245.752 315.573 245.951 314.756 246.227C313.948 246.493 313.294 246.896 312.793 247.438C312.302 247.97 312.057 248.696 312.057 249.616C312.057 250.873 312.522 251.824 313.452 252.468C314.393 253.101 315.584 253.418 317.025 253.418ZM337.491 241.949V256.117H333.873V232.565H337.369V236.245H337.675C338.227 235.049 339.066 234.088 340.19 233.362C341.314 232.626 342.766 232.258 344.545 232.258C346.139 232.258 347.535 232.585 348.731 233.239C349.927 233.883 350.857 234.865 351.521 236.183C352.186 237.492 352.518 239.148 352.518 241.151V256.117H348.899V241.397C348.899 239.547 348.419 238.105 347.458 237.073C346.497 236.03 345.178 235.509 343.502 235.509C342.347 235.509 341.314 235.759 340.405 236.26C339.505 236.761 338.795 237.492 338.273 238.453C337.752 239.414 337.491 240.579 337.491 241.949ZM371.765 256.117V224.714H382.376C384.83 224.714 386.843 225.133 388.418 225.971C389.992 226.799 391.157 227.939 391.914 229.391C392.67 230.842 393.048 232.493 393.048 234.343C393.048 236.194 392.67 237.834 391.914 239.265C391.157 240.697 389.997 241.821 388.433 242.639C386.869 243.446 384.87 243.85 382.438 243.85H373.851V240.415H382.315C383.991 240.415 385.341 240.17 386.363 239.679C387.395 239.189 388.142 238.494 388.602 237.594C389.072 236.684 389.307 235.601 389.307 234.343C389.307 233.086 389.072 231.987 388.602 231.047C388.131 230.106 387.38 229.38 386.348 228.869C385.315 228.348 383.95 228.087 382.254 228.087H375.568V256.117H371.765ZM386.547 242.01L394.275 256.117H389.859L382.254 242.01H386.547ZM408.516 256.608C406.247 256.608 404.289 256.107 402.643 255.105C401.008 254.093 399.745 252.682 398.856 250.873C397.977 249.053 397.537 246.937 397.537 244.525C397.537 242.112 397.977 239.986 398.856 238.146C399.745 236.296 400.982 234.855 402.567 233.822C404.161 232.779 406.022 232.258 408.148 232.258C409.375 232.258 410.586 232.463 411.782 232.871C412.978 233.28 414.067 233.945 415.048 234.865C416.029 235.775 416.811 236.981 417.394 238.483C417.977 239.986 418.268 241.836 418.268 244.034V245.568H400.113V242.439H414.588C414.588 241.111 414.322 239.925 413.791 238.882C413.269 237.839 412.523 237.017 411.552 236.413C410.591 235.81 409.456 235.509 408.148 235.509C406.707 235.509 405.459 235.867 404.407 236.582C403.364 237.287 402.561 238.207 401.999 239.342C401.437 240.477 401.156 241.693 401.156 242.991V245.077C401.156 246.856 401.463 248.363 402.076 249.6C402.699 250.827 403.563 251.762 404.667 252.406C405.771 253.04 407.054 253.357 408.516 253.357C409.467 253.357 410.325 253.224 411.092 252.958C411.869 252.682 412.538 252.273 413.101 251.732C413.663 251.18 414.097 250.495 414.404 249.677L417.9 250.658C417.532 251.844 416.914 252.887 416.045 253.786C415.176 254.676 414.102 255.371 412.825 255.872C411.547 256.362 410.111 256.608 408.516 256.608ZM440.456 237.839L437.205 238.759C437 238.218 436.699 237.691 436.3 237.18C435.912 236.659 435.38 236.229 434.706 235.892C434.031 235.555 433.167 235.386 432.114 235.386C430.673 235.386 429.472 235.718 428.511 236.383C427.56 237.037 427.085 237.87 427.085 238.882C427.085 239.782 427.412 240.492 428.066 241.013C428.72 241.535 429.743 241.969 431.133 242.317L434.629 243.175C436.735 243.687 438.304 244.469 439.336 245.522C440.369 246.564 440.885 247.908 440.885 249.554C440.885 250.904 440.496 252.11 439.72 253.173C438.953 254.236 437.88 255.074 436.5 255.688C435.12 256.301 433.515 256.608 431.685 256.608C429.283 256.608 427.294 256.086 425.72 255.044C424.146 254.001 423.149 252.478 422.73 250.474L426.165 249.616C426.492 250.883 427.11 251.834 428.02 252.468C428.94 253.101 430.141 253.418 431.623 253.418C433.31 253.418 434.649 253.06 435.641 252.345C436.643 251.619 437.144 250.75 437.144 249.738C437.144 248.92 436.857 248.236 436.285 247.684C435.712 247.121 434.833 246.702 433.648 246.426L429.722 245.506C427.565 244.995 425.981 244.203 424.969 243.129C423.967 242.046 423.466 240.691 423.466 239.066C423.466 237.737 423.839 236.562 424.585 235.539C425.342 234.517 426.369 233.715 427.667 233.132C428.976 232.549 430.458 232.258 432.114 232.258C434.445 232.258 436.275 232.769 437.604 233.791C438.943 234.814 439.893 236.163 440.456 237.839ZM455.9 256.608C453.774 256.608 451.908 256.102 450.303 255.09C448.709 254.078 447.462 252.662 446.562 250.842C445.673 249.023 445.228 246.896 445.228 244.464C445.228 242.01 445.673 239.869 446.562 238.039C447.462 236.209 448.709 234.788 450.303 233.776C451.908 232.764 453.774 232.258 455.9 232.258C458.026 232.258 459.887 232.764 461.482 233.776C463.086 234.788 464.334 236.209 465.223 238.039C466.123 239.869 466.572 242.01 466.572 244.464C466.572 246.896 466.123 249.023 465.223 250.842C464.334 252.662 463.086 254.078 461.482 255.09C459.887 256.102 458.026 256.608 455.9 256.608ZM455.9 253.357C457.515 253.357 458.844 252.943 459.887 252.115C460.93 251.287 461.701 250.198 462.202 248.849C462.703 247.5 462.954 246.038 462.954 244.464C462.954 242.889 462.703 241.422 462.202 240.063C461.701 238.703 460.93 237.604 459.887 236.766C458.844 235.928 457.515 235.509 455.9 235.509C454.285 235.509 452.956 235.928 451.913 236.766C450.871 237.604 450.099 238.703 449.598 240.063C449.097 241.422 448.847 242.889 448.847 244.464C448.847 246.038 449.097 247.5 449.598 248.849C450.099 250.198 450.871 251.287 451.913 252.115C452.956 252.943 454.285 253.357 455.9 253.357ZM486.939 246.488V232.565H490.558V256.117H486.939V252.13H486.694C486.142 253.326 485.283 254.343 484.118 255.182C482.952 256.01 481.48 256.424 479.702 256.424C478.23 256.424 476.921 256.102 475.776 255.458C474.631 254.803 473.732 253.822 473.078 252.514C472.423 251.195 472.096 249.534 472.096 247.53V232.565H475.715V247.285C475.715 249.002 476.195 250.372 477.156 251.394C478.127 252.416 479.364 252.928 480.867 252.928C481.767 252.928 482.681 252.698 483.612 252.238C484.552 251.778 485.339 251.072 485.973 250.122C486.617 249.171 486.939 247.96 486.939 246.488ZM497.186 256.117V232.565H500.682V236.122H500.927C501.356 234.957 502.133 234.011 503.258 233.285C504.382 232.56 505.65 232.197 507.06 232.197C507.326 232.197 507.658 232.202 508.057 232.212C508.456 232.222 508.757 232.238 508.962 232.258V235.938C508.839 235.907 508.558 235.861 508.118 235.8C507.689 235.729 507.234 235.693 506.754 235.693C505.609 235.693 504.587 235.933 503.687 236.413C502.798 236.884 502.092 237.538 501.571 238.376C501.06 239.204 500.804 240.15 500.804 241.213V256.117H497.186ZM522.103 256.608C519.894 256.608 517.993 256.086 516.398 255.044C514.804 254.001 513.577 252.565 512.718 250.735C511.86 248.905 511.43 246.815 511.43 244.464C511.43 242.071 511.87 239.961 512.749 238.131C513.638 236.291 514.875 234.855 516.46 233.822C518.054 232.779 519.915 232.258 522.041 232.258C523.697 232.258 525.19 232.565 526.519 233.178C527.847 233.791 528.936 234.65 529.785 235.754C530.633 236.858 531.159 238.146 531.364 239.618H527.745C527.469 238.545 526.856 237.594 525.905 236.766C524.965 235.928 523.697 235.509 522.103 235.509C520.692 235.509 519.455 235.877 518.392 236.613C517.339 237.339 516.516 238.366 515.923 239.695C515.34 241.013 515.049 242.562 515.049 244.341C515.049 246.16 515.335 247.745 515.908 249.094C516.49 250.444 517.308 251.491 518.361 252.238C519.424 252.984 520.671 253.357 522.103 253.357C523.043 253.357 523.897 253.193 524.663 252.866C525.43 252.539 526.079 252.069 526.611 251.456C527.142 250.842 527.52 250.106 527.745 249.248H531.364C531.159 250.638 530.653 251.89 529.846 253.004C529.049 254.108 527.991 254.987 526.672 255.642C525.363 256.286 523.84 256.608 522.103 256.608ZM546.529 256.608C544.259 256.608 542.302 256.107 540.656 255.105C539.02 254.093 537.758 252.682 536.869 250.873C535.989 249.053 535.55 246.937 535.55 244.525C535.55 242.112 535.989 239.986 536.869 238.146C537.758 236.296 538.995 234.855 540.579 233.822C542.174 232.779 544.034 232.258 546.161 232.258C547.387 232.258 548.599 232.463 549.795 232.871C550.991 233.28 552.079 233.945 553.061 234.865C554.042 235.775 554.824 236.981 555.407 238.483C555.989 239.986 556.281 241.836 556.281 244.034V245.568H538.126V242.439H552.601C552.601 241.111 552.335 239.925 551.803 238.882C551.282 237.839 550.536 237.017 549.565 236.413C548.604 235.81 547.469 235.509 546.161 235.509C544.719 235.509 543.472 235.867 542.419 236.582C541.377 237.287 540.574 238.207 540.012 239.342C539.45 240.477 539.169 241.693 539.169 242.991V245.077C539.169 246.856 539.475 248.363 540.089 249.6C540.712 250.827 541.576 251.762 542.68 252.406C543.784 253.04 545.067 253.357 546.529 253.357C547.479 253.357 548.338 253.224 549.105 252.958C549.882 252.682 550.551 252.273 551.113 251.732C551.676 251.18 552.11 250.495 552.417 249.677L555.913 250.658C555.545 251.844 554.926 252.887 554.057 253.786C553.189 254.676 552.115 255.371 550.837 255.872C549.56 256.362 548.123 256.608 546.529 256.608ZM578.468 237.839L575.218 238.759C575.013 238.218 574.712 237.691 574.313 237.18C573.925 236.659 573.393 236.229 572.718 235.892C572.044 235.555 571.18 235.386 570.127 235.386C568.686 235.386 567.484 235.718 566.524 236.383C565.573 237.037 565.098 237.87 565.098 238.882C565.098 239.782 565.425 240.492 566.079 241.013C566.733 241.535 567.755 241.969 569.146 242.317L572.642 243.175C574.747 243.687 576.317 244.469 577.349 245.522C578.381 246.564 578.898 247.908 578.898 249.554C578.898 250.904 578.509 252.11 577.732 253.173C576.966 254.236 575.892 255.074 574.512 255.688C573.132 256.301 571.527 256.608 569.698 256.608C567.295 256.608 565.307 256.086 563.733 255.044C562.159 254.001 561.162 252.478 560.743 250.474L564.178 249.616C564.505 250.883 565.123 251.834 566.033 252.468C566.953 253.101 568.154 253.418 569.636 253.418C571.323 253.418 572.662 253.06 573.654 252.345C574.655 251.619 575.156 250.75 575.156 249.738C575.156 248.92 574.87 248.236 574.298 247.684C573.725 247.121 572.846 246.702 571.66 246.426L567.735 245.506C565.578 244.995 563.994 244.203 562.982 243.129C561.98 242.046 561.479 240.691 561.479 239.066C561.479 237.737 561.852 236.562 562.598 235.539C563.355 234.517 564.382 233.715 565.68 233.132C566.989 232.549 568.471 232.258 570.127 232.258C572.458 232.258 574.287 232.769 575.616 233.791C576.955 234.814 577.906 236.163 578.468 237.839Z" fill="white"/>
<path d="M107.449 75.0532H93.4797C92.6536 71.035 91.2078 67.505 89.1423 64.4632C87.1144 61.4213 84.6359 58.8677 81.7068 56.8023C78.8151 54.6993 75.6043 53.1221 72.0743 52.0706C68.5443 51.0191 64.8641 50.4933 61.0336 50.4933C54.0487 50.4933 47.721 52.2583 42.0504 55.7883C36.4174 59.3184 31.9298 64.5195 28.5875 71.3918C25.2829 78.264 23.6305 86.6947 23.6305 96.6839C23.6305 106.673 25.2829 115.104 28.5875 121.976C31.9298 128.848 36.4174 134.05 42.0504 137.58C47.721 141.11 54.0487 142.875 61.0336 142.875C64.8641 142.875 68.5443 142.349 72.0743 141.297C75.6043 140.246 78.8151 138.687 81.7068 136.622C84.6359 134.519 87.1144 131.947 89.1423 128.905C91.2078 125.825 92.6536 122.295 93.4797 118.315H107.449C106.398 124.211 104.482 129.487 101.704 134.143C98.925 138.8 95.4701 142.762 91.3392 146.029C87.2083 149.259 82.5705 151.718 77.4257 153.408C72.3184 155.098 66.8544 155.943 61.0336 155.943C51.1947 155.943 42.4447 153.54 34.7839 148.733C27.123 143.926 21.0957 137.091 16.7019 128.229C12.3082 119.366 10.1113 108.851 10.1113 96.6839C10.1113 84.5166 12.3082 74.0017 16.7019 65.1391C21.0957 56.2765 27.123 49.4418 34.7839 44.635C42.4447 39.8282 51.1947 37.4248 61.0336 37.4248C66.8544 37.4248 72.3184 38.2697 77.4257 39.9596C82.5705 41.6495 87.2083 44.128 91.3392 47.3952C95.4701 50.6248 98.925 54.5679 101.704 59.2245C104.482 63.8435 106.398 69.1198 107.449 75.0532ZM227.362 96.6839C227.362 108.851 225.165 119.366 220.771 128.229C216.377 137.091 210.35 143.926 202.689 148.733C195.028 153.54 186.278 155.943 176.439 155.943C166.6 155.943 157.85 153.54 150.19 148.733C142.529 143.926 136.501 137.091 132.108 128.229C127.714 119.366 125.517 108.851 125.517 96.6839C125.517 84.5166 127.714 74.0017 132.108 65.1391C136.501 56.2765 142.529 49.4418 150.19 44.635C157.85 39.8282 166.6 37.4248 176.439 37.4248C186.278 37.4248 195.028 39.8282 202.689 44.635C210.35 49.4418 216.377 56.2765 220.771 65.1391C225.165 74.0017 227.362 84.5166 227.362 96.6839ZM213.842 96.6839C213.842 86.6947 212.171 78.264 208.829 71.3918C205.524 64.5195 201.037 59.3184 195.366 55.7883C189.733 52.2583 183.424 50.4933 176.439 50.4933C169.454 50.4933 163.127 52.2583 157.456 55.7883C151.823 59.3184 147.336 64.5195 143.993 71.3918C140.689 78.264 139.036 86.6947 139.036 96.6839C139.036 106.673 140.689 115.104 143.993 121.976C147.336 128.848 151.823 134.05 157.456 137.58C163.127 141.11 169.454 142.875 176.439 142.875C183.424 142.875 189.733 141.11 195.366 137.58C201.037 134.05 205.524 128.848 208.829 121.976C212.171 115.104 213.842 106.673 213.842 96.6839ZM250.851 154.366V39.002H264.821V90.375H326.334V39.002H340.303V154.366H326.334V102.768H264.821V154.366H250.851ZM368.271 154.366V39.002H407.252C416.264 39.002 423.662 40.5417 429.446 43.6211C435.229 46.6629 439.51 50.8501 442.289 56.1827C445.068 61.5152 446.457 67.5801 446.457 74.3772C446.457 81.1744 445.068 87.2017 442.289 92.4592C439.51 97.7166 435.248 101.848 429.502 104.852C423.756 107.819 416.415 109.302 407.477 109.302H375.932V96.6839H407.026C413.185 96.6839 418.142 95.7826 421.897 93.9801C425.69 92.1775 428.432 89.6239 430.122 86.3192C431.849 82.977 432.713 78.9963 432.713 74.3772C432.713 69.7582 431.849 65.7212 430.122 62.2663C428.394 58.8114 425.634 56.1451 421.841 54.2674C418.048 52.3522 413.035 51.3946 406.801 51.3946H382.241V154.366H368.271ZM422.573 102.542L450.964 154.366H434.741L406.801 102.542H422.573Z" fill="white"/>
<path d="M326.527 114.6C326.527 129.19 326.527 143.782 326.525 158.373C326.525 159.126 326.597 159.894 326.477 160.629C326.255 161.974 325.451 162.868 324.032 162.92C322.589 162.972 321.751 162.085 321.479 160.761C321.312 159.945 321.391 159.074 321.391 158.229C321.388 129.046 321.389 99.8638 321.392 70.6811C321.392 70.0225 321.347 69.3545 321.439 68.7065C321.635 67.3131 322.521 66.4518 323.888 66.4411C325.381 66.4278 326.345 67.2931 326.489 68.8505C326.559 69.5985 326.525 70.3558 326.525 71.1091C326.527 85.6051 326.527 100.102 326.527 114.6Z" fill="white"/>
<path d="M372.874 132.126C372.875 139.937 372.869 147.747 372.881 155.558C372.883 156.894 372.807 157.978 371.395 158.857C369.609 159.97 368.231 159.761 367.734 157.715C367.515 156.817 367.529 155.849 367.527 154.911C367.518 139.666 367.522 124.421 367.526 109.175C367.526 108.423 367.513 107.665 367.597 106.921C367.75 105.549 368.465 104.637 369.921 104.541C371.482 104.437 372.407 105.305 372.759 106.73C372.935 107.445 372.869 108.225 372.869 108.975C372.875 116.693 372.873 124.409 372.874 132.126Z" fill="white"/>
<path d="M312.24 61.8702C312.24 55.2742 312.245 48.6782 312.237 42.0822C312.235 40.2342 312.187 38.1595 314.684 38.1209C317.084 38.0835 317.359 40.0462 317.36 41.9475C317.363 55.4222 317.363 68.8969 317.363 82.3715C317.363 84.1769 317.137 85.9289 314.823 86.0129C312.393 86.1009 312.255 84.3102 312.256 82.5062C312.259 75.6275 312.257 68.7489 312.257 61.8702H312.24Z" fill="white"/>
<path d="M339.878 146.217C339.875 139.825 339.898 133.432 339.861 127.04C339.85 125.144 340.286 123.42 342.457 123.481C344.501 123.54 345.135 125.197 345.134 127.109C345.121 139.989 345.133 152.868 345.121 165.748C345.119 167.497 344.57 169.064 342.555 169.131C340.302 169.205 339.865 167.575 339.871 165.677C339.895 159.191 339.881 152.704 339.878 146.217Z" fill="white"/>
<path d="M317.361 155.119C317.361 160.104 317.361 165.088 317.359 170.074C317.358 170.732 317.435 171.407 317.314 172.044C317.037 173.514 316.374 174.778 314.653 174.768C312.851 174.758 312.253 173.503 312.251 171.918C312.242 160.726 312.267 149.532 312.245 138.34C312.242 136.62 313.107 135.487 314.666 135.487C316.57 135.486 317.367 136.899 317.365 138.754C317.355 144.208 317.361 149.664 317.361 155.119Z" fill="white"/>
<path d="M358.204 137.966C358.204 132.786 358.21 127.604 358.2 122.424C358.196 120.463 358.552 118.68 361.002 118.738C363.342 118.792 363.53 120.662 363.534 122.41C363.558 132.864 363.552 143.319 363.525 153.774C363.52 155.559 363.23 157.355 360.877 157.298C358.696 157.246 358.156 155.716 358.166 153.79C358.2 148.515 358.178 143.24 358.178 137.966C358.186 137.966 358.196 137.966 358.204 137.966Z" fill="white"/>
<path d="M302.729 113.791C302.727 109.27 302.727 104.749 302.727 100.226C302.727 98.334 302.933 96.414 305.327 96.2794C307.802 96.1407 308.17 98.1007 308.181 99.9647C308.238 109.29 308.257 118.615 308.21 127.941C308.202 129.685 307.817 131.441 305.442 131.405C303.126 131.37 302.739 129.762 302.734 127.922C302.721 123.211 302.73 118.502 302.729 113.791Z" fill="white"/>
<path d="M354.233 113.774C354.235 118.757 354.196 123.741 354.255 128.723C354.279 130.678 353.701 132.275 351.589 132.245C349.663 132.217 349.076 130.698 349.084 128.85C349.124 118.602 349.131 108.354 349.087 98.106C349.079 96.234 349.728 94.7154 351.605 94.71C353.637 94.7047 354.295 96.262 354.261 98.2607C354.173 103.43 354.232 108.603 354.233 113.774Z" fill="white"/>
<path d="M376.834 112.331C376.833 107.435 376.866 102.539 376.817 97.6443C376.797 95.727 377.268 94.039 379.432 94.0923C381.53 94.1443 382.013 95.7897 382.002 97.7283C381.948 107.426 381.952 117.124 381.992 126.82C381.998 128.751 381.578 130.34 379.353 130.331C377.053 130.32 376.81 128.588 376.824 126.736C376.86 121.935 376.836 117.132 376.834 112.331Z" fill="white"/>
<path d="M335.822 118.65C335.822 122.787 335.818 126.924 335.823 131.06C335.826 132.947 335.262 134.67 333.117 134.575C331.063 134.484 330.493 132.78 330.498 130.888C330.518 122.708 330.537 114.528 330.502 106.348C330.494 104.416 331.07 102.791 333.135 102.72C335.294 102.647 335.829 104.356 335.825 106.238C335.817 110.375 335.822 114.512 335.822 118.65Z" fill="white"/>
<path d="M354.234 152.293C354.236 156.817 354.215 161.34 354.246 165.864C354.259 167.785 353.806 169.348 351.514 169.269C349.35 169.196 349.102 167.593 349.104 165.85C349.119 156.804 349.124 147.757 349.096 138.71C349.091 136.926 349.447 135.292 351.531 135.309C353.536 135.325 354.258 136.801 354.243 138.722C354.207 143.246 354.231 147.769 354.234 152.293Z" fill="white"/>
<path d="M330.526 153.072C330.526 149.219 330.522 145.367 330.527 141.513C330.53 139.692 330.849 138.007 333.146 137.96C335.494 137.912 335.825 139.633 335.829 141.443C335.847 149.336 335.847 157.229 335.825 165.123C335.819 166.909 335.542 168.683 333.209 168.691C330.931 168.7 330.519 167.032 330.513 165.195C330.497 161.153 330.507 157.113 330.507 153.072H330.526Z" fill="white"/>
<path d="M274.967 60.8731C274.967 57.0118 274.975 53.1491 274.965 49.2878C274.959 47.3785 275.534 45.8265 277.73 45.8291C279.877 45.8318 280.591 47.3118 280.591 49.2491C280.587 56.9718 280.606 64.6958 280.558 72.4198C280.547 74.2265 280.075 75.9051 277.775 75.9038C275.511 75.9038 274.986 74.3278 274.974 72.4585C274.95 68.5971 274.967 64.7345 274.967 60.8731Z" fill="white"/>
<path d="M298.841 89.1511C298.841 93.3844 298.817 97.6178 298.851 101.85C298.866 103.671 298.327 105.162 296.302 105.173C294.342 105.183 293.611 103.833 293.617 101.945C293.646 93.3831 293.641 84.8231 293.627 76.2631C293.625 74.4031 294.274 73.0458 296.319 73.0858C298.214 73.1231 298.815 74.4364 298.807 76.1698C298.789 80.4964 298.802 84.8244 298.802 89.1511C298.815 89.1511 298.827 89.1511 298.841 89.1511Z" fill="white"/>
<path d="M391.057 140.347C391.061 144.108 391.023 147.871 391.077 151.632C391.105 153.509 390.796 155.205 388.552 155.253C386.335 155.301 385.876 153.696 385.885 151.772C385.924 143.967 385.945 136.16 385.877 128.353C385.861 126.401 386.373 124.727 388.424 124.691C390.728 124.649 391.116 126.489 391.077 128.497C390.999 132.445 391.053 136.396 391.057 140.347Z" fill="white"/>
<path d="M358.178 101.035C358.178 97.6534 358.231 94.2707 358.158 90.8907C358.115 88.9707 358.62 87.3854 360.711 87.2267C362.955 87.0547 363.488 88.7014 363.491 90.5974C363.499 97.7347 363.52 104.872 363.514 112.011C363.512 113.767 362.95 115.365 360.916 115.329C358.995 115.295 358.226 113.827 358.212 112.024C358.187 108.361 358.204 104.697 358.204 101.035H358.178Z" fill="white"/>
<path d="M413.598 133.554C413.598 129.69 413.618 125.825 413.59 121.961C413.577 120.127 414.131 118.677 416.205 118.71C418.079 118.741 418.719 120.073 418.718 121.806C418.713 129.535 418.719 137.263 418.723 144.993C418.725 146.725 418.01 148.089 416.195 148.127C414.171 148.17 413.567 146.717 413.586 144.865C413.625 141.095 413.598 137.325 413.598 133.554Z" fill="white"/>
<path d="M280.599 92.269C280.599 95.365 280.663 98.4623 280.575 101.557C280.521 103.45 279.951 105.304 277.613 105.202C275.485 105.109 274.983 103.36 274.976 101.549C274.952 95.169 274.96 88.7903 274.984 82.4103C274.991 80.6623 275.528 79.2303 277.604 79.1036C279.736 78.9743 280.437 80.4556 280.504 82.1396C280.639 85.5116 280.544 88.8916 280.544 92.269C280.563 92.269 280.58 92.269 280.599 92.269Z" fill="white"/>
<path d="M308.223 45.7002C308.223 48.8989 308.269 52.0989 308.206 55.2962C308.17 57.0989 307.685 58.8642 305.449 58.7869C303.322 58.7122 302.734 57.0775 302.733 55.1975C302.729 48.9882 302.727 42.7789 302.73 36.5682C302.731 34.7215 303.189 33.0349 305.366 32.9282C307.649 32.8149 308.107 34.6069 308.155 36.3882C308.239 39.4909 308.179 42.5962 308.179 45.7002C308.194 45.7002 308.209 45.7002 308.223 45.7002Z" fill="white"/>
<path d="M289.68 77.7449C289.68 81.0382 289.651 84.3329 289.692 87.6262C289.715 89.5302 288.899 90.8289 286.981 90.8689C284.929 90.9129 284.385 89.4502 284.395 87.6075C284.429 80.8315 284.443 74.0555 284.396 67.2795C284.384 65.3822 285.044 64.0422 287.028 64.0435C289.021 64.0449 289.693 65.4609 289.684 67.2982C289.668 70.7809 289.68 74.2622 289.68 77.7449Z" fill="white"/>
<path d="M265.882 79.9107C265.882 76.7081 265.927 73.5041 265.865 70.3027C265.827 68.4747 266.609 67.3201 268.41 67.2587C270.407 67.1921 271.161 68.4334 271.147 70.3721C271.105 76.8707 271.125 83.3707 271.138 89.8707C271.142 91.6481 270.719 93.2214 268.619 93.2187C266.499 93.2161 265.819 91.7961 265.863 89.8014C265.935 86.5054 265.882 83.2081 265.882 79.9107Z" fill="white"/>
<path d="M400.159 117.681C400.161 120.881 400.147 124.079 400.166 127.279C400.175 129.014 399.575 130.298 397.654 130.322C395.593 130.349 394.954 129.027 394.962 127.158C394.986 120.665 394.981 114.171 394.971 107.679C394.97 105.933 395.65 104.634 397.505 104.603C399.529 104.57 400.197 105.917 400.171 107.801C400.125 111.093 400.158 114.387 400.159 117.681Z" fill="white"/>
<path d="M335.793 73.2988C335.793 76.1214 335.817 78.9454 335.784 81.7681C335.765 83.4948 334.969 84.8148 333.14 84.7534C331.368 84.6934 330.532 83.3721 330.523 81.6588C330.492 76.0108 330.48 70.3628 330.521 64.7161C330.532 63.0628 331.165 61.7161 333.099 61.6534C335.26 61.5841 335.787 63.0908 335.827 64.8281C335.889 67.6508 335.844 70.4748 335.844 73.2988C335.827 73.2988 335.811 73.2988 335.793 73.2988Z" fill="white"/>
<path d="M345.13 91.6772C345.13 94.7812 345.127 97.8865 345.13 100.991C345.132 102.907 344.432 104.507 342.347 104.491C340.358 104.477 339.85 102.885 339.855 101.091C339.874 94.9758 339.843 88.8612 339.855 82.7465C339.859 80.9252 340.208 79.1665 342.542 79.2852C344.74 79.3972 345.136 81.0852 345.132 82.9292C345.124 85.8452 345.13 88.7612 345.13 91.6772Z" fill="white"/>
<path d="M354.231 78.9774C354.231 81.9814 354.228 84.9867 354.232 87.9907C354.235 89.7974 353.696 91.2134 351.578 91.1721C349.62 91.1334 349.108 89.7881 349.108 88.0974C349.111 81.9947 349.14 75.8907 349.092 69.7881C349.078 67.8827 349.822 66.5094 351.75 66.5774C353.666 66.6441 354.311 68.1001 354.264 69.9641C354.188 72.9667 354.244 75.9734 354.244 78.9774H354.231Z" fill="white"/>
<path d="M381.972 145.284C381.972 148.01 381.944 150.736 381.983 153.462C382.007 155.203 381.339 156.567 379.548 156.631C377.628 156.702 376.808 155.408 376.821 153.492C376.86 147.852 376.839 142.212 376.837 136.572C376.837 134.851 377.429 133.574 379.375 133.566C381.313 133.558 381.952 134.823 381.96 136.543C381.972 139.456 381.963 142.371 381.963 145.284H381.972Z" fill="white"/>
<path d="M284.404 105.499C284.404 102.868 284.422 100.238 284.398 97.6069C284.382 95.7602 284.963 94.4189 287.075 94.4535C288.992 94.4855 289.668 95.7389 289.675 97.4482C289.694 102.804 289.663 108.16 289.688 113.516C289.696 115.312 288.902 116.451 287.107 116.547C285.206 116.648 284.463 115.427 284.455 113.671C284.444 110.947 284.452 108.223 284.452 105.499C284.436 105.499 284.42 105.499 284.404 105.499Z" fill="white"/>
<path d="M409.488 126.86C409.491 129.204 409.534 131.549 409.478 133.892C409.436 135.596 408.643 136.871 406.795 136.824C405.094 136.781 404.352 135.539 404.338 133.957C404.296 129.271 404.278 124.581 404.34 119.895C404.36 118.337 405.11 117.141 406.871 117.112C408.648 117.081 409.391 118.28 409.458 119.831C409.56 122.169 409.484 124.516 409.488 126.86Z" fill="white"/>
<path d="M372.866 90.411C372.87 92.7657 372.922 95.1203 372.852 97.4723C372.801 99.159 372.414 100.844 370.258 100.775C368.173 100.708 367.522 99.2643 367.541 97.3337C367.589 92.6257 367.593 87.9177 367.58 83.2097C367.574 81.3617 368.237 79.8723 370.221 79.9563C372.106 80.0363 372.866 81.5203 372.864 83.3483C372.86 85.703 372.862 88.0563 372.866 90.411Z" fill="white"/>
<path d="M289.682 39.766C289.679 42.1153 289.688 44.4647 289.675 46.814C289.666 48.6393 289.038 49.9367 286.928 49.9353C284.902 49.9327 284.415 48.6447 284.41 46.9487C284.394 42.1567 284.35 37.3647 284.379 32.574C284.391 30.8207 284.92 29.3847 287.112 29.4567C289.279 29.526 289.691 30.946 289.686 32.718C289.68 35.0673 289.684 37.4167 289.682 39.766Z" fill="white"/>
<path d="M400.303 144.2C400.303 146.46 400.331 148.72 400.294 150.98C400.267 152.663 399.687 153.963 397.712 153.983C395.906 154 395.112 152.749 395.079 151.261C394.968 146.368 394.992 141.469 395.068 136.575C395.094 134.992 396.035 133.801 397.686 133.787C399.363 133.772 400.166 135.06 400.235 136.575C400.351 139.112 400.267 141.657 400.267 144.2C400.279 144.2 400.291 144.2 400.303 144.2Z" fill="white"/>
<path d="M312.251 98.9994C312.251 96.7461 312.249 94.4941 312.251 92.2408C312.252 90.5981 312.953 89.5021 314.695 89.4341C316.325 89.3714 317.233 90.5194 317.271 91.8834C317.404 96.7608 317.38 101.645 317.296 106.523C317.271 107.995 316.252 109.063 314.777 109.073C313.141 109.083 312.265 108.001 312.263 106.321C312.259 103.881 312.261 101.439 312.261 98.9994H312.251Z" fill="white"/>
<path d="M312.254 121.828C312.254 119.481 312.258 117.134 312.253 114.789C312.249 113.24 313.002 112.233 314.532 112.1C316.27 111.946 317.257 113.122 317.293 114.646C317.409 119.522 317.393 124.406 317.272 129.284C317.236 130.717 316.204 131.789 314.674 131.724C313.202 131.66 312.286 130.732 312.28 129.148C312.27 126.708 312.277 124.268 312.277 121.828H312.254Z" fill="white"/>
<path d="M293.633 60.1305C293.633 57.9705 293.699 55.8092 293.613 53.6532C293.539 51.7399 294.633 50.7239 296.255 50.6612C298.052 50.5932 298.811 51.9079 298.803 53.6732C298.783 58.1799 298.784 62.6865 298.801 67.1932C298.808 68.9612 297.796 69.8519 296.201 69.8705C294.552 69.8905 293.649 68.8759 293.648 67.1719C293.647 64.8252 293.648 62.4772 293.648 60.1305H293.633Z" fill="white"/>
<path d="M293.626 131.336C293.626 129.266 293.679 127.196 293.61 125.128C293.546 123.216 294.377 121.873 296.253 121.852C298.003 121.833 298.825 123.134 298.815 124.917C298.793 129.149 298.802 133.382 298.814 137.616C298.819 139.508 297.973 140.85 296.031 140.738C294.281 140.638 293.561 139.309 293.611 137.544C293.673 135.476 293.626 133.405 293.626 131.336Z" fill="white"/>
<path d="M302.737 143.294C302.741 141.512 302.669 139.725 302.761 137.948C302.85 136.23 303.434 134.712 305.509 134.717C307.422 134.722 308.1 136.126 308.141 137.745C308.233 141.401 308.276 145.062 308.148 148.714C308.09 150.365 307.52 151.896 305.278 151.713C303.129 151.537 302.769 150.077 302.74 148.361C302.71 146.673 302.733 144.984 302.737 143.294Z" fill="white"/>
<path d="M326.522 54.2369C326.523 56.2969 326.521 58.3569 326.523 60.4182C326.526 62.1182 325.569 63.1596 323.995 63.2022C322.377 63.2462 321.421 62.1369 321.406 60.4902C321.366 56.2769 321.349 52.0609 321.419 47.8489C321.447 46.2396 322.326 45.1756 324.069 45.2462C325.811 45.3169 326.501 46.4396 326.517 48.0556C326.537 50.1169 326.521 52.1769 326.522 54.2369Z" fill="white"/>
<path d="M261.976 65.2604C261.972 67.2284 261.999 69.1977 261.964 71.1657C261.934 72.907 261.067 74.151 259.284 74.1297C257.494 74.1084 256.706 72.8404 256.707 71.0937C256.71 67.1564 256.694 63.2204 256.724 59.283C256.738 57.6737 257.398 56.5884 259.212 56.5497C261.148 56.5084 261.906 57.6417 261.964 59.355C262.032 61.3217 261.98 63.2924 261.976 65.2604Z" fill="white"/>
<path d="M385.918 100.851C385.921 99.0681 385.86 97.2814 385.94 95.5014C386.013 93.8454 387.004 92.8374 388.645 92.9121C390.145 92.9787 391.014 94.0161 391.03 95.5334C391.072 99.2867 391.092 103.043 391.017 106.796C390.986 108.328 390.025 109.222 388.469 109.211C386.913 109.202 386.008 108.282 385.938 106.763C385.846 104.796 385.916 102.822 385.918 100.851Z" fill="white"/>
<path d="M302.76 69.573C302.76 67.9757 302.683 66.373 302.782 64.781C302.882 63.181 303.788 62.1037 305.439 62.033C307.174 61.9597 308.048 63.137 308.111 64.6917C308.24 67.881 308.295 71.0837 308.144 74.2704C308.078 75.7064 307.323 77.0104 305.508 77.0077C303.571 77.005 302.892 75.7117 302.763 74.0824C302.643 72.589 302.738 71.077 302.738 69.573H302.76Z" fill="white"/>
<path d="M381.966 82.4552C381.968 84.1472 381.973 85.8379 381.966 87.5299C381.958 89.2752 381.21 90.5125 379.354 90.5059C377.654 90.4992 376.865 89.3405 376.852 87.7152C376.822 84.2392 376.832 80.7619 376.852 77.2859C376.861 75.5925 377.706 74.6499 379.449 74.6672C381.222 74.6845 381.95 75.7232 381.962 77.3819C381.976 79.0725 381.965 80.7645 381.966 82.4552Z" fill="white"/>
<path d="M302.737 86.4399C302.737 85.4985 302.674 84.5519 302.752 83.6172C302.88 82.0572 303.206 80.5745 305.165 80.3505C307.22 80.1172 307.861 81.9092 308.017 83.1265C308.345 85.7065 308.16 88.3692 308.013 90.9865C307.937 92.3439 306.976 93.2572 305.596 93.3105C304.056 93.3719 303.09 92.3145 302.872 90.9439C302.638 89.4772 302.82 87.9439 302.82 86.4399C302.792 86.4399 302.765 86.4399 302.737 86.4399Z" fill="white"/>
<path d="M271.098 57.3535C271.102 58.8562 271.169 60.3628 271.084 61.8602C270.992 63.4895 269.874 64.1215 268.396 64.1175C266.984 64.1148 265.984 63.3068 265.937 61.9228C265.828 58.7335 265.832 55.5348 265.953 52.3468C266.006 50.9228 267.19 50.1455 268.476 50.1695C269.858 50.1962 271.041 50.9068 271.085 52.5642C271.128 54.1602 271.094 55.7575 271.098 57.3535Z" fill="white"/>
<path d="M363.449 77.6449C363.449 78.9515 363.519 80.2635 363.431 81.5649C363.337 82.9462 362.58 83.7809 361.12 83.9075C359.501 84.0475 358.459 83.1515 358.355 81.7489C358.151 78.9609 358.144 76.1395 358.329 73.3502C358.423 71.9515 359.487 71.0169 361.063 71.1235C362.647 71.2315 363.381 72.2395 363.464 73.7182C363.536 75.0235 363.479 76.3355 363.479 77.6449C363.469 77.6449 363.459 77.6449 363.449 77.6449Z" fill="white"/>
<path d="M372.854 70.4598C372.854 71.6745 372.974 72.9037 372.823 74.0997C372.634 75.6077 371.785 76.829 370.158 76.8517C368.482 76.8757 367.642 75.6544 367.594 74.0944C367.517 71.5757 367.597 69.053 367.637 66.5317C367.659 65.073 368.599 64.217 369.882 64.081C371.347 63.925 372.461 64.8517 372.699 66.2717C372.929 67.6317 372.749 69.0611 372.749 70.4598C372.783 70.4598 372.819 70.4598 372.854 70.4598Z" fill="white"/>
<path d="M427.838 125.825C427.838 127.135 427.888 128.447 427.825 129.753C427.758 131.159 426.965 132.043 425.556 132.14C423.997 132.248 422.961 131.329 422.874 129.868C422.716 127.165 422.717 124.441 422.858 121.737C422.932 120.309 423.821 119.299 425.444 119.353C427.06 119.408 427.778 120.393 427.841 121.897C427.896 123.204 427.853 124.516 427.853 125.825H427.838Z" fill="white"/>
<path d="M363.452 166.754C363.452 167.975 363.513 169.202 363.436 170.419C363.347 171.822 362.571 172.671 361.119 172.787C359.519 172.916 358.452 171.991 358.331 170.595C358.111 168.074 358.124 165.51 358.307 162.983C358.405 161.616 359.247 160.546 360.933 160.611C362.561 160.672 363.34 161.587 363.456 163.086C363.551 164.302 363.475 165.53 363.475 166.754C363.468 166.754 363.46 166.754 363.452 166.754Z" fill="white"/>
<path d="M335.736 93.5975C335.736 94.8162 335.838 96.0442 335.71 97.2495C335.567 98.5842 334.808 99.5242 333.356 99.6055C331.76 99.6949 330.755 98.7202 330.64 97.3149C330.44 94.8935 330.458 92.4362 330.619 90.0095C330.715 88.5589 331.711 87.6482 333.294 87.6922C334.914 87.7375 335.64 88.7709 335.784 90.2215C335.896 91.3362 335.807 92.4709 335.807 93.5975C335.783 93.5975 335.76 93.5975 335.736 93.5975Z" fill="white"/>
<path d="M409.606 145.74C409.503 147.136 409.501 148.548 409.27 149.923C409.058 151.194 408.153 151.79 406.833 151.76C405.51 151.731 404.574 151.092 404.501 149.81C404.357 147.294 404.303 144.758 404.442 142.243C404.517 140.884 405.541 140.11 406.975 140.126C408.442 140.143 409.231 141.047 409.418 142.368C409.574 143.47 409.45 144.611 409.45 145.734C409.502 145.736 409.554 145.738 409.606 145.74Z" fill="white"/>
<path d="M339.899 113.774C339.899 112.745 339.853 111.712 339.91 110.685C339.994 109.193 340.717 108.186 342.305 108.094C343.751 108.01 344.69 108.878 344.913 110.17C345.357 112.757 345.323 115.4 344.937 117.985C344.749 119.24 343.785 120.089 342.299 120.005C340.818 119.921 340.071 119.049 339.95 117.701C339.831 116.402 339.923 115.084 339.923 113.774C339.915 113.774 339.907 113.774 339.899 113.774Z" fill="white"/>
<path d="M339.853 62.507C339.853 61.6656 339.815 60.823 339.861 59.9843C339.951 58.375 340.728 57.2563 342.423 57.2416C344.124 57.227 344.941 58.4363 345.08 59.9496C345.232 61.619 345.193 63.3176 345.103 64.9963C345.015 66.6163 344.416 67.9603 342.476 67.983C340.507 68.0056 339.951 66.699 339.875 65.0323C339.837 64.1923 339.868 63.3483 339.868 62.507H339.853Z" fill="white"/>
<path d="M321.398 171.377C321.398 170.343 321.317 169.301 321.417 168.277C321.563 166.789 322.386 165.781 323.961 165.829C325.453 165.875 326.438 166.697 326.485 168.29C326.538 170.074 326.551 171.862 326.517 173.647C326.482 175.462 325.822 176.555 323.689 176.611C321.305 176.674 321.521 175.087 321.398 173.633C321.335 172.885 321.387 172.129 321.387 171.377H321.398Z" fill="white"/>
<path d="M293.647 42.2233C293.647 41.2819 293.598 40.3366 293.658 39.3993C293.761 37.8179 294.803 36.9659 296.238 36.9339C297.721 36.9019 298.71 37.8006 298.765 39.3873C298.822 41.0806 298.771 42.7779 298.811 44.4713C298.855 46.3646 297.738 47.3886 296.074 47.3526C294.513 47.3193 293.591 46.1779 293.633 44.4833C293.651 43.7299 293.635 42.9766 293.635 42.2233H293.647Z" fill="white"/>
<path d="M298.801 114.011C298.637 115.759 299.649 118.783 296.143 118.723C292.915 118.668 293.743 115.807 293.636 113.772C293.591 112.932 293.625 112.088 293.629 111.247C293.639 109.561 294.444 108.62 296.171 108.575C297.921 108.529 298.723 109.491 298.795 111.148C298.832 111.989 298.801 112.832 298.801 114.011Z" fill="white"/>
<path d="M427.856 140.49C427.857 140.865 427.848 141.239 427.858 141.614C427.905 143.498 427.82 145.443 425.29 145.399C423.004 145.359 422.814 143.507 422.776 141.742C422.752 140.619 422.746 139.493 422.794 138.37C422.864 136.755 423.725 135.522 425.31 135.511C427.048 135.498 427.96 136.699 427.861 138.523C427.825 139.177 427.856 139.834 427.856 140.49Z" fill="white"/>
<path d="M363.471 63.1748C363.471 63.8281 363.508 64.4854 363.463 65.1361C363.355 66.7068 362.684 67.8801 360.949 67.9068C359.235 67.9334 358.436 66.7601 358.255 65.2468C358.1 63.9561 358.136 62.6294 358.225 61.3281C358.347 59.5694 359.052 58.1961 361.117 58.3148C363.093 58.4294 363.441 59.8801 363.483 61.4934C363.497 62.0534 363.485 62.6148 363.485 63.1748H363.471Z" fill="white"/>
<path d="M274.95 36.3045C274.976 35.7325 274.896 34.9565 275.066 34.2419C275.376 32.9512 276.282 31.9805 277.585 31.9419C278.676 31.9099 279.829 32.3965 280.22 33.6672C280.872 35.7859 280.929 37.9125 279.834 39.9019C279.257 40.9525 278.094 41.0752 277.086 40.8152C274.778 40.2192 275.008 38.2565 274.95 36.3045Z" fill="white"/>
<path d="M391.01 116.984C391.01 117.733 391.065 118.488 390.998 119.231C390.889 120.421 390.062 121.019 388.999 121.291C387.867 121.58 386.793 121.199 386.378 120.173C385.557 118.143 385.57 115.977 386.374 113.941C386.778 112.921 387.81 112.429 388.947 112.687C390.013 112.928 390.834 113.577 390.981 114.74C391.074 115.477 390.998 116.235 390.998 116.984C391.002 116.984 391.006 116.984 391.01 116.984Z" fill="white"/>
<path d="M289.685 56.8182C289.721 59.1929 289.579 61.1942 286.901 61.1155C284.152 61.0342 284.412 58.8155 284.36 56.9635C284.309 55.1035 284.375 53.1942 286.971 53.2155C289.696 53.2382 289.728 55.2209 289.685 56.8182Z" fill="white"/>
<path d="M335.8 55.7506C335.641 57.1186 335.132 58.4039 333.157 58.4013C331.34 58.3973 330.629 57.1746 330.574 55.7066C330.512 54.0466 331.426 52.7359 333.229 52.7439C334.854 52.7519 335.692 53.8746 335.8 55.7506Z" fill="white"/>
<path d="M351.555 62.9951C349.959 62.8831 349.116 61.9857 349.147 60.4577C349.177 58.9124 350.229 57.9297 351.656 57.9697C353.18 58.0124 354.339 58.9684 354.195 60.7097C354.068 62.2417 353.105 63.0164 351.555 62.9951Z" fill="white"/>
<path d="M434.524 123.452C436.012 123.634 437.053 124.393 437.053 125.932C437.053 127.256 436.314 128.292 434.865 128.39C433.321 128.494 432.365 127.678 432.233 126.124C432.098 124.52 433.092 123.78 434.524 123.452Z" fill="white"/>
<path d="M345.097 73.6108C344.866 75.0348 344.098 76.1268 342.586 76.1681C340.966 76.2121 339.908 75.3001 339.928 73.5575C339.945 71.9441 340.958 71.1201 342.456 71.1148C343.982 71.1081 344.802 72.1175 345.097 73.6108Z" fill="white"/>
<path d="M298.822 31.2562C298.629 32.8975 297.814 34.0002 296.122 33.9268C294.626 33.8628 293.681 32.8601 293.668 31.3521C293.653 29.6774 294.626 28.7494 296.336 28.7787C297.936 28.8067 298.669 29.7655 298.822 31.2562Z" fill="white"/>
<path d="M252.581 65.9676C252.362 67.4316 251.635 68.4743 250.058 68.4809C248.467 68.4863 247.619 67.4449 247.605 65.9636C247.59 64.4503 248.505 63.4689 250.065 63.4569C251.65 63.4449 252.361 64.5076 252.581 65.9676Z" fill="white"/>
</svg>
